# xmcd CD database file
#
# Track frame offsets:
#	150
#	19890
#	35577
#	58795
#	77400
#	102503
#	122987
#	140297
#
# Disc length: 2249 seconds
#
# Revision: 0
# Processed by: cddbd v1.5.2PL0 Copyright (c) Steve Scherf et al.
# Submitted via: CDex 1.70beta3
#
DISCID=6908c708
DTITLE=Richard "Groove" Holmes - I'm In The Mood For Love
DYEAR=1976
DGENRE=Jazz
TTITLE0=I'm In The Mood For Love
TTITLE1=This Is The Me Me (Not The You You)
TTITLE2=I've Got Love For You
TTITLE3=Non Kulu Leku
TTITLE4=Sweet Georgia Brown
TTITLE5=Morning Children
TTITLE6=Reachin' The Preacher
TTITLE7=Caravan
EXTD=YEAR: 1976
EXTT0=
EXTT1=
EXTT2=
EXTT3=
EXTT4=
EXTT5=
EXTT6=
EXTT7=
PLAYORDER=
